<svg xmlns="http://www.w3.org/2000/svg" width="488" height="107" viewBox="0 0 488 107" fill="none"><path d="M155.549 68.0308C143.347 43.2648 107.119 8.41548 86.2254 1.33948C82.6632 7.10137 80.3137 13.5961 79.3537 20.3183C80.1369 20.2931 80.8948 20.2678 81.6527 20.2678C111.085 20.2678 135.01 44.2251 135.01 73.6411C135.01 74.3992 135.01 75.1574 134.959 75.9408C142.387 74.9047 149.309 72.2512 155.524 68.0308H155.549Z" fill="#E84325"></path><path d="M24.3291 99.9486C39.1337 104.371 59.0415 106.797 80.3389 106.797C118.715 106.797 159.491 97.8511 159.491 81.2477C159.491 78.67 158.733 75.5364 157.267 71.872C149.284 77.1032 140.063 80.0852 130.513 80.5148C129.704 80.5654 128.896 80.5654 128.062 80.5654C116.441 80.5654 105.401 76.901 96.1288 69.9514C95.4467 69.4459 94.7646 68.9152 94.1078 68.3593C81.7537 58.1749 74.6799 43.1636 74.6799 27.1668C74.6799 26.3328 74.6798 25.5242 74.7304 24.6902C74.7556 23.9068 74.8315 23.1234 74.882 22.34V22.1378C75.6146 14.4553 78.0652 6.89911 81.9558 0.202171C81.1474 0.0758142 80.3895 0 79.7326 0C56.6415 0 0 57.6694 0 81.1972C0 90.6487 13.213 96.5875 24.3038 99.898L24.3291 99.9486Z" fill="#E84325"></path><path d="M199.445 47.5095C212.228 47.5095 220.894 53.9032 220.894 68.4596V98.5831C220.894 99.4171 220.49 100.024 219.757 100.327C214.401 101.969 206.645 103.41 199.015 103.41C187.04 103.41 176 99.0886 176 86.1748C176 74.9291 185.398 69.6726 198.586 69.6726C201.996 69.6726 205.811 70.0769 208.893 70.5065V68.5354C208.893 61.2066 206.215 58.1235 198.586 58.1235C193.432 58.1235 188.682 59.4629 185.373 61.4341C184.64 61.9395 183.832 61.8384 183.301 61.0297L179.183 54.7372C178.678 53.9032 178.678 53.3978 179.183 52.9934C184.135 49.5818 191.057 47.5348 199.394 47.5348L199.445 47.5095ZM199.041 92.9981C202.451 92.9981 206.367 92.3916 208.944 91.7598V80.1097C206.165 79.7054 202.148 79.2757 198.94 79.2757C191.209 79.2757 188.101 81.8534 188.101 86.099C188.101 90.9512 192.75 92.9981 199.041 92.9981Z" fill="white"></path><path d="M256.288 47.5096C269.274 47.5096 278.874 55.9756 278.874 69.3947V80.7416C278.874 96.4351 268.769 103.435 255.152 103.435C248.457 103.435 240.499 101.995 234.41 99.7204C233.475 99.4172 233.172 98.8865 233.172 97.9767V29.9712C233.172 28.9351 233.677 28.4297 234.713 28.4297H243.581C244.617 28.4297 245.122 28.9351 245.122 29.9712V49.7841C248.33 48.4447 252.145 47.5096 256.263 47.5096H256.288ZM266.722 80.8174V69.3694C266.722 61.5353 262.503 58.1236 255.076 58.1236C251.16 58.1236 247.749 59.1598 245.172 60.8024V91.2545C247.648 92.2906 251.362 92.695 254.874 92.695C262.301 92.695 266.748 89.5866 266.748 80.8174H266.722Z" fill="white"></path><path d="M296.129 41.5202C292.315 41.5202 289.333 38.5382 289.333 34.6969C289.333 30.8557 292.315 28 296.129 28C299.944 28 302.824 30.7799 302.824 34.6969C302.824 38.614 300.045 41.5202 296.129 41.5202ZM291.582 102.197C290.647 102.197 290.041 101.692 290.041 100.655V50.1883C290.041 49.2533 290.672 48.7479 291.582 48.7479H300.551C301.485 48.7479 301.991 49.2533 301.991 50.1883V100.655C301.991 101.692 301.485 102.197 300.551 102.197H291.582Z" fill="white"></path><path d="M334.808 47.5095C347.592 47.5095 356.257 53.9032 356.257 68.4596V98.5831C356.257 99.4171 355.853 100.024 355.12 100.327C349.765 101.969 342.009 103.41 334.379 103.41C322.404 103.41 311.364 99.0886 311.364 86.1748C311.364 74.9291 320.736 69.6726 333.949 69.6726C337.36 69.6726 341.175 70.0769 344.257 70.5065V68.5354C344.257 61.2066 341.579 58.1235 333.949 58.1235C328.796 58.1235 324.046 59.4629 320.736 61.4341C320.004 61.9395 319.195 61.8384 318.665 61.0297L314.547 54.7372C314.041 53.9032 314.041 53.3978 314.547 52.9934C319.498 49.5818 326.421 47.5348 334.758 47.5348L334.808 47.5095ZM334.404 92.9981C337.815 92.9981 341.731 92.3916 344.308 91.7598V80.1097C341.529 79.7054 337.512 79.2757 334.303 79.2757C326.572 79.2757 323.465 81.8534 323.465 86.099C323.465 90.9512 328.113 92.9981 334.404 92.9981Z" fill="white"></path><path d="M388.443 92.4928C389.378 92.4928 391.02 92.3917 392.662 92.2907C393.698 92.2907 394.305 92.7961 394.305 93.7311V101.565C394.305 102.399 393.9 103.107 392.865 103.208C391.121 103.309 388.949 103.41 387.408 103.41C376.671 103.41 368.333 97.9515 368.333 84.3301V37.1736C368.333 36.2386 368.839 35.7332 369.875 35.7332H377.706C378.54 35.7332 379.146 36.2386 379.247 37.0725L380.182 49.4556H391.222C392.157 49.4556 392.764 49.961 392.764 50.896V58.4269C392.764 59.3619 392.132 59.8674 391.222 59.8674H380.283V83.4962C380.283 89.1823 383.163 92.4676 388.443 92.4676V92.4928Z" fill="white"></path><path d="M422.802 47.5095C435.586 47.5095 444.251 53.9032 444.251 68.4596V98.5831C444.251 99.4171 443.847 100.024 443.114 100.327C437.758 101.969 430.002 103.41 422.373 103.41C410.398 103.41 399.357 99.0886 399.357 86.1748C399.357 74.9291 408.73 69.6726 421.943 69.6726C425.354 69.6726 429.169 70.0769 432.251 70.5065V68.5354C432.251 61.2066 429.573 58.1235 421.943 58.1235C416.789 58.1235 412.04 59.4629 408.73 61.4341C407.998 61.9395 407.189 61.8384 406.659 61.0297L402.541 54.7372C402.035 53.9032 402.035 53.3978 402.541 52.9934C407.492 49.5818 414.415 47.5348 422.752 47.5348L422.802 47.5095ZM422.398 92.9981C425.809 92.9981 429.725 92.3916 432.301 91.7598V80.1097C429.522 79.7054 425.505 79.2757 422.297 79.2757C414.566 79.2757 411.459 81.8534 411.459 86.099C411.459 90.9512 416.107 92.9981 422.398 92.9981Z" fill="white"></path><path d="M458.096 102.197C457.06 102.197 456.555 101.691 456.555 100.655V53.1956C456.555 52.3616 456.858 51.7551 457.692 51.4519C462.946 48.8742 469.439 47.5348 475.755 47.5348C478.964 47.5348 482.349 47.737 486.29 48.3688C487.225 48.4698 487.629 49.1016 487.629 49.9103V57.3401C487.629 58.2751 486.998 58.7806 485.987 58.5784C483.41 58.1741 480.404 58.1741 477.625 58.1741C473.911 58.1741 470.5 58.8059 468.555 59.6145V100.681C468.555 101.717 468.05 102.222 467.014 102.222H458.146L458.096 102.197Z" fill="white"></path></svg>