<svg xmlns="http://www.w3.org/2000/svg" width="403" height="230" viewBox="0 0 403 230" fill="none"><path d="M398.227 68.8127C386.025 44.0467 349.797 9.19734 328.903 2.12134C325.341 7.88323 322.992 14.378 322.032 21.1002C322.815 21.0749 323.573 21.0497 324.331 21.0497C353.763 21.0497 377.688 45.007 377.688 74.423C377.688 75.1811 377.688 75.9392 377.637 76.7227C385.065 75.6865 391.987 73.033 398.202 68.8127H398.227Z" fill="#E84325"></path><path d="M267.007 100.73C281.812 105.153 301.719 107.579 323.017 107.579C361.393 107.579 402.168 98.6329 402.168 82.0296C402.168 79.4519 401.41 76.3182 399.945 72.6539C391.962 77.885 382.74 80.8671 373.191 81.2967C372.382 81.3472 371.574 81.3472 370.74 81.3472C359.119 81.3472 348.079 77.6829 338.807 70.7332C338.125 70.2278 337.442 69.6971 336.786 69.1411C324.432 58.9567 317.358 43.9455 317.358 27.9487C317.358 27.1147 317.358 26.306 317.408 25.4721C317.433 24.6887 317.509 23.9052 317.56 23.1218V22.9197C318.292 15.2371 320.743 7.68097 324.634 0.984032C323.825 0.857675 323.067 0.78186 322.41 0.78186C299.319 0.78186 242.678 58.4513 242.678 81.979C242.678 91.4306 255.891 97.3693 266.982 100.68L267.007 100.73Z" fill="#E84325"></path><path d="M24.2721 143.919C37.0556 143.919 45.7211 150.313 45.7211 164.869V194.993C45.7211 195.827 45.3169 196.434 44.5842 196.737C39.2283 198.379 31.4723 199.82 23.8426 199.82C11.8676 199.82 0.827271 195.498 0.827271 182.585C0.827271 171.339 10.2254 166.083 23.4131 166.083C26.8237 166.083 30.6386 166.487 33.7208 166.916V164.945C33.7208 157.617 31.0428 154.533 23.4131 154.533C18.2593 154.533 13.5097 155.873 10.2001 157.844C9.4675 158.349 8.65906 158.248 8.12852 157.44L4.01051 151.147C3.50524 150.313 3.50524 149.808 4.01051 149.403C8.96222 145.992 15.8845 143.945 24.2216 143.945L24.2721 143.919ZM23.8679 189.408C27.2785 189.408 31.1944 188.802 33.7713 188.17V176.52C30.9923 176.115 26.9753 175.686 23.7668 175.686C16.0361 175.686 12.9286 178.263 12.9286 182.509C12.9286 187.361 17.5772 189.408 23.8679 189.408Z" fill="#39373A"></path><path d="M81.1157 143.92C94.1013 143.92 103.702 152.385 103.702 165.805V177.151C103.702 192.845 93.596 199.845 79.9788 199.845C73.2839 199.845 65.3258 198.405 59.2372 196.13C58.3024 195.827 57.9993 195.296 57.9993 194.387V126.381C57.9993 125.345 58.5045 124.84 59.5404 124.84H68.408C69.4438 124.84 69.9491 125.345 69.9491 126.381V146.194C73.1576 144.855 76.9724 143.92 81.0904 143.92H81.1157ZM91.5496 177.227V165.779C91.5496 157.945 87.3306 154.534 79.903 154.534C75.9871 154.534 72.5765 155.57 69.9996 157.212V187.664C72.4754 188.701 76.1892 189.105 79.7009 189.105C87.1285 189.105 91.5749 185.996 91.5749 177.227H91.5496Z" fill="#39373A"></path><path d="M120.957 137.93C117.142 137.93 114.161 134.948 114.161 131.107C114.161 127.266 117.142 124.41 120.957 124.41C124.772 124.41 127.652 127.19 127.652 131.107C127.652 135.024 124.873 137.93 120.957 137.93ZM116.409 198.607C115.474 198.607 114.868 198.101 114.868 197.065V146.598C114.868 145.663 115.5 145.158 116.409 145.158H125.378C126.313 145.158 126.818 145.663 126.818 146.598V197.065C126.818 198.101 126.313 198.607 125.378 198.607H116.409Z" fill="#39373A"></path><path d="M159.636 143.919C172.419 143.919 181.085 150.313 181.085 164.869V194.993C181.085 195.827 180.68 196.434 179.948 196.737C174.592 198.379 166.836 199.82 159.206 199.82C147.231 199.82 136.191 195.498 136.191 182.585C136.191 171.339 145.564 166.083 158.777 166.083C162.187 166.083 166.002 166.487 169.084 166.916V164.945C169.084 157.617 166.406 154.533 158.777 154.533C153.623 154.533 148.873 155.873 145.564 157.844C144.831 158.349 144.023 158.248 143.492 157.44L139.374 151.147C138.869 150.313 138.869 149.808 139.374 149.403C144.326 145.992 151.248 143.945 159.585 143.945L159.636 143.919ZM159.231 189.408C162.642 189.408 166.558 188.802 169.135 188.17V176.52C166.356 176.115 162.339 175.686 159.13 175.686C151.4 175.686 148.292 178.263 148.292 182.509C148.292 187.361 152.941 189.408 159.231 189.408Z" fill="#39373A"></path><path d="M213.271 188.903C214.205 188.903 215.848 188.802 217.49 188.701C218.526 188.701 219.132 189.206 219.132 190.141V197.975C219.132 198.809 218.728 199.517 217.692 199.618C215.949 199.719 213.776 199.82 212.235 199.82C201.498 199.82 193.161 194.361 193.161 180.74V133.584C193.161 132.648 193.666 132.143 194.702 132.143H202.534C203.367 132.143 203.974 132.648 204.075 133.482L205.009 145.865H216.05C216.984 145.865 217.591 146.371 217.591 147.306V154.837C217.591 155.772 216.959 156.277 216.05 156.277H205.111V179.906C205.111 185.592 207.991 188.877 213.271 188.877V188.903Z" fill="#39373A"></path><path d="M247.63 143.919C260.413 143.919 269.079 150.313 269.079 164.869V194.993C269.079 195.827 268.674 196.434 267.942 196.737C262.586 198.379 254.83 199.82 247.2 199.82C235.225 199.82 224.185 195.498 224.185 182.585C224.185 171.339 233.558 166.083 246.771 166.083C250.181 166.083 253.996 166.487 257.078 166.916V164.945C257.078 157.617 254.4 154.533 246.771 154.533C241.617 154.533 236.867 155.873 233.558 157.844C232.825 158.349 232.016 158.248 231.486 157.44L227.368 151.147C226.863 150.313 226.863 149.808 227.368 149.403C232.32 145.992 239.242 143.945 247.579 143.945L247.63 143.919ZM247.225 189.408C250.636 189.408 254.552 188.802 257.129 188.17V176.52C254.35 176.115 250.333 175.686 247.124 175.686C239.394 175.686 236.286 178.263 236.286 182.509C236.286 187.361 240.935 189.408 247.225 189.408Z" fill="#39373A"></path><path d="M282.923 198.607C281.887 198.607 281.382 198.101 281.382 197.065V149.606C281.382 148.772 281.685 148.165 282.519 147.862C287.774 145.284 294.267 143.945 300.582 143.945C303.791 143.945 307.176 144.147 311.117 144.779C312.052 144.88 312.456 145.512 312.456 146.32V153.75C312.456 154.685 311.825 155.19 310.814 154.988C308.237 154.584 305.231 154.584 302.452 154.584C298.738 154.584 295.328 155.216 293.382 156.024V197.091C293.382 198.127 292.877 198.632 291.841 198.632H282.974L282.923 198.607Z" fill="#39373A"></path><path d="M5.65268 219.532C7.90116 219.532 9.03803 220.795 9.03803 220.795L8.22959 222.034C8.22959 222.034 7.16851 221.073 5.70321 221.073C3.75789 221.073 2.62102 222.514 2.62102 224.232C2.62102 225.951 3.80842 227.517 5.72847 227.517C7.32009 227.517 8.40644 226.355 8.40644 226.355L9.29067 227.568C9.29067 227.568 8.02748 229.059 5.67794 229.059C2.87366 229.059 0.928345 226.961 0.928345 224.257C0.928345 221.553 2.94945 219.532 5.65268 219.532Z" fill="#454347"></path><path d="M17.5014 219.532C20.2047 219.532 22.251 221.604 22.251 224.232C22.251 226.86 20.2047 229.059 17.5014 229.059C14.7982 229.059 12.7518 226.936 12.7518 224.232C12.7518 221.528 14.7982 219.532 17.5014 219.532ZM17.5014 227.517C19.1941 227.517 20.5331 226.127 20.5331 224.232C20.5331 222.337 19.1941 221.073 17.5014 221.073C15.8088 221.073 14.4698 222.413 14.4698 224.232C14.4698 226.052 15.8088 227.517 17.5014 227.517Z" fill="#454347"></path><path d="M26.5459 219.683H28.2133L31.6997 224.99C32.0534 225.521 32.4576 226.405 32.4576 226.405C32.4576 226.405 32.3566 225.521 32.3566 224.99V219.683H34.024V228.882H32.3566L28.8702 223.575C28.5165 223.044 28.1122 222.16 28.1122 222.16H28.087C28.087 222.16 28.188 223.044 28.188 223.575V228.882H26.5206V219.683H26.5459Z" fill="#454347"></path><path d="M39.2031 226.532C39.2031 226.532 40.2136 227.492 41.5021 227.492C42.2095 227.492 42.8411 227.138 42.8411 226.38C42.8411 224.738 38.4957 225.016 38.4957 222.185C38.4957 220.644 39.8094 219.506 41.5779 219.506C43.3463 219.506 44.3316 220.492 44.3316 220.492L43.599 221.857C43.599 221.857 42.7147 221.048 41.5526 221.048C40.7694 221.048 40.1631 221.503 40.1631 222.16C40.1631 223.802 44.4832 223.398 44.4832 226.33C44.4832 227.795 43.3716 229.034 41.4516 229.034C39.4052 229.034 38.2683 227.77 38.2683 227.77L39.1778 226.507L39.2031 226.532Z" fill="#454347"></path><path d="M50.6729 221.124H47.6412V219.683H55.3467V221.124H52.3403V228.882H50.6729V221.124Z" fill="#454347"></path><path d="M59.1615 219.683H62.1426C63.1279 219.683 63.5827 219.759 63.9869 219.936C64.8964 220.34 65.5027 221.225 65.5027 222.463C65.5027 223.575 64.9216 224.586 63.9364 224.965C63.9364 224.965 64.0627 225.116 64.2395 225.445L66.1343 228.882H64.2648L62.4458 225.445H60.8289V228.882H59.1615V219.683ZM62.3447 224.005C63.229 224.005 63.81 223.474 63.81 222.539C63.81 221.604 63.4311 221.124 62.1174 221.124H60.8542V224.005H62.3447Z" fill="#454347"></path><path d="M70.0754 219.683H71.7429V225.571C71.7429 226.81 72.5513 227.492 73.7892 227.492C75.0272 227.492 75.8356 226.784 75.8356 225.546V219.658H77.503V225.546C77.503 227.618 76.0124 229.008 73.7892 229.008C71.566 229.008 70.0754 227.618 70.0754 225.546V219.658V219.683Z" fill="#454347"></path><path d="M84.1979 221.124H81.1663V219.683H88.8717V221.124H85.8653V228.882H84.1979V221.124Z" fill="#454347"></path><path d="M96.7541 219.532C99.4573 219.532 101.504 221.604 101.504 224.232C101.504 226.86 99.4573 229.059 96.7541 229.059C94.0509 229.059 92.0045 226.936 92.0045 224.232C92.0045 221.528 94.0509 219.532 96.7541 219.532ZM96.7541 227.517C98.4468 227.517 99.7858 226.127 99.7858 224.232C99.7858 222.337 98.4468 221.073 96.7541 221.073C95.0614 221.073 93.7225 222.413 93.7225 224.232C93.7225 226.052 95.0614 227.517 96.7541 227.517Z" fill="#454347"></path><path d="M105.798 219.683H108.78C109.765 219.683 110.22 219.759 110.624 219.936C111.533 220.34 112.14 221.225 112.14 222.463C112.14 223.575 111.559 224.586 110.573 224.965C110.573 224.965 110.7 225.116 110.876 225.445L112.771 228.882H110.902L109.083 225.445H107.466V228.882H105.798V219.683ZM108.956 224.005C109.841 224.005 110.422 223.474 110.422 222.539C110.422 221.604 110.043 221.124 108.729 221.124H107.466V224.005H108.956Z" fill="#454347"></path><path d="M121.487 226.532H118.254L117.47 228.882H115.752L118.986 219.683H120.729L123.963 228.882H122.245L121.462 226.532H121.487ZM119.87 221.275C119.87 221.275 119.668 222.185 119.491 222.69L118.683 225.142H121.083L120.275 222.69C120.098 222.16 119.921 221.275 119.921 221.275H119.896H119.87Z" fill="#454347"></path><path d="M133.488 219.683H138.995V221.124H135.155V223.524H138.263V224.965H135.155V227.441H139.197V228.882H133.488V219.683Z" fill="#454347"></path><path d="M149.278 219.683H150.945V228.882H149.278V219.683Z" fill="#454347"></path><path d="M155.871 219.683H157.539L161.025 224.99C161.379 225.521 161.783 226.405 161.783 226.405C161.783 226.405 161.682 225.521 161.682 224.99V219.683H163.35V228.882H161.682L158.196 223.575C157.842 223.044 157.438 222.16 157.438 222.16H157.413C157.413 222.16 157.514 223.044 157.514 223.575V228.882H155.846V219.683H155.871Z" fill="#454347"></path><path d="M172.419 219.532C174.668 219.532 175.805 220.795 175.805 220.795L174.996 222.034C174.996 222.034 173.935 221.073 172.47 221.073C170.524 221.073 169.388 222.514 169.388 224.232C169.388 225.951 170.575 227.517 172.495 227.517C174.087 227.517 175.173 226.355 175.173 226.355L176.057 227.568C176.057 227.568 174.794 229.059 172.444 229.059C169.64 229.059 167.695 226.961 167.695 224.257C167.695 221.553 169.716 219.532 172.419 219.532Z" fill="#454347"></path><path d="M184.268 219.532C186.971 219.532 189.018 221.604 189.018 224.232C189.018 226.86 186.971 229.059 184.268 229.059C181.565 229.059 179.518 226.936 179.518 224.232C179.518 221.528 181.565 219.532 184.268 219.532ZM184.268 227.517C185.961 227.517 187.3 226.127 187.3 224.232C187.3 222.337 185.961 221.073 184.268 221.073C182.575 221.073 181.236 222.413 181.236 224.232C181.236 226.052 182.575 227.517 184.268 227.517Z" fill="#454347"></path><path d="M193.312 219.683H196.294C197.279 219.683 197.734 219.759 198.138 219.936C199.047 220.34 199.654 221.225 199.654 222.463C199.654 223.575 199.073 224.586 198.087 224.965C198.087 224.965 198.214 225.116 198.39 225.445L200.285 228.882H198.416L196.597 225.445H194.98V228.882H193.312V219.683ZM196.496 224.005C197.38 224.005 197.961 223.474 197.961 222.539C197.961 221.604 197.582 221.124 196.268 221.124H195.005V224.005H196.496Z" fill="#454347"></path><path d="M204.428 219.683H207.991C209.709 219.683 210.921 220.896 210.921 222.665C210.921 224.434 209.709 225.698 207.991 225.698H206.121V228.882H204.454V219.683H204.428ZM207.662 224.257C208.622 224.257 209.203 223.625 209.203 222.665C209.203 221.705 208.622 221.098 207.688 221.098H206.096V224.232H207.662V224.257Z" fill="#454347"></path><path d="M219.107 219.532C221.81 219.532 223.856 221.604 223.856 224.232C223.856 226.86 221.81 229.059 219.107 229.059C216.404 229.059 214.357 226.936 214.357 224.232C214.357 221.528 216.404 219.532 219.107 219.532ZM219.107 227.517C220.799 227.517 222.138 226.127 222.138 224.232C222.138 222.337 220.799 221.073 219.107 221.073C217.414 221.073 216.075 222.413 216.075 224.232C216.075 226.052 217.414 227.517 219.107 227.517Z" fill="#454347"></path><path d="M228.151 219.683H231.132C232.118 219.683 232.572 219.759 232.977 219.936C233.886 220.34 234.492 221.225 234.492 222.463C234.492 223.575 233.911 224.586 232.926 224.965C232.926 224.965 233.052 225.116 233.229 225.445L235.124 228.882H233.255L231.436 225.445H229.819V228.882H228.151V219.683ZM231.309 224.005C232.193 224.005 232.749 223.474 232.749 222.539C232.749 221.604 232.37 221.124 231.057 221.124H229.793V224.005H231.284H231.309Z" fill="#454347"></path><path d="M243.84 226.532H240.606L239.823 228.882H238.105L241.339 219.683H243.082L246.316 228.882H244.598L243.815 226.532H243.84ZM242.223 221.275C242.223 221.275 242.021 222.185 241.844 222.69L241.036 225.142H243.436L242.627 222.69C242.451 222.16 242.274 221.275 242.274 221.275H242.248H242.223Z" fill="#454347"></path><path d="M250.105 219.683H253.238C256.068 219.683 257.937 221.376 257.937 224.283C257.937 227.189 256.093 228.907 253.238 228.907H250.105V219.708V219.683ZM253.162 227.441C255.032 227.441 256.219 226.329 256.219 224.257C256.219 222.185 255.007 221.098 253.162 221.098H251.798V227.416H253.162V227.441Z" fill="#454347"></path><path d="M266.401 219.532C269.104 219.532 271.15 221.604 271.15 224.232C271.15 226.86 269.104 229.059 266.401 229.059C263.697 229.059 261.651 226.936 261.651 224.232C261.651 221.528 263.697 219.532 266.401 219.532ZM266.401 227.517C268.093 227.517 269.432 226.127 269.432 224.232C269.432 222.337 268.093 221.073 266.401 221.073C264.708 221.073 263.369 222.413 263.369 224.232C263.369 226.052 264.708 227.517 266.401 227.517Z" fill="#454347"></path><path d="M275.445 219.683H278.426C279.411 219.683 279.866 219.759 280.27 219.936C281.18 220.34 281.786 221.225 281.786 222.463C281.786 223.575 281.205 224.586 280.22 224.965C280.22 224.965 280.346 225.116 280.523 225.445L282.418 228.882H280.548L278.729 225.445H277.112V228.882H275.445V219.683ZM278.628 224.005C279.513 224.005 280.094 223.474 280.094 222.539C280.094 221.604 279.715 221.124 278.401 221.124H277.138V224.005H278.628Z" fill="#454347"></path><path d="M291.134 226.532H287.9L287.117 228.882H285.399L288.633 219.683H290.376L293.61 228.882H291.892L291.109 226.532H291.134ZM289.517 221.275C289.517 221.275 289.315 222.185 289.138 222.69L288.33 225.142H290.73L289.921 222.69C289.744 222.16 289.568 221.275 289.568 221.275H289.542H289.517Z" fill="#454347"></path></svg>